<?xml version="1.0" encoding="utf-8"?>
<!-- Generator: Adobe Illustrator 25.4.1, SVG Export Plug-In . SVG Version: 6.00 Build 0)  -->
<svg version="1.1" id="Layer_1" xmlns="http://www.w3.org/2000/svg" xmlns:xlink="http://www.w3.org/1999/xlink" x="0px" y="0px"
	 width="300" height="300" viewBox="0 0 300 300" style="enable-background:new 0 0 300 300;" xml:space="preserve">
<style type="text/css">
	.st0{fill:#E6E3E6;}
	.st1{fill:#87BF59;}
	.st2{fill:#54B1E2;}
	.st3{fill:#D2D2D2;}
	.st4{fill:#676867;}
	.st5{fill:#4F4D4E;}
	.st6{fill:#ED6F63;}
	.st7{fill:#FDC867;}
</style>
<g>
	<path class="st0" d="M277.99,259.35H22.01C9.85,259.35,0,249.5,0,237.34V34.75C0,22.6,9.85,12.75,22.01,12.75h255.99
		c12.15,0,22.01,9.85,22.01,22.01v202.59C300,249.5,290.15,259.35,277.99,259.35z"/>
	<g>
		<path class="st1" d="M112.66,96.69c-0.83,0.68-1.24,1.58-1.24,2.7s0.51,2.01,1.52,2.68c1.01,0.66,3.35,1.44,7.01,2.34
			c3.66,0.9,6.5,2.25,8.53,4.06c2.02,1.8,3.04,4.43,3.04,7.89s-1.3,6.27-3.89,8.42c-2.59,2.15-6.01,3.23-10.24,3.23
			c-6.11,0-11.61-2.26-16.51-6.79l5.13-6.29c4.16,3.64,8,5.46,11.54,5.46c1.58,0,2.82-0.34,3.73-1.02c0.9-0.68,1.35-1.6,1.35-2.76
			c0-1.16-0.48-2.08-1.43-2.76c-0.96-0.68-2.85-1.37-5.69-2.08c-4.49-1.06-7.78-2.45-9.85-4.16c-2.08-1.72-3.12-4.4-3.12-8.06
			s1.32-6.49,3.95-8.47c2.63-1.99,5.91-2.98,9.85-2.98c2.58,0,5.15,0.45,7.73,1.33c2.58,0.88,4.82,2.13,6.74,3.75l-4.36,6.29
			c-3.35-2.54-6.81-3.81-10.38-3.81C114.62,95.68,113.48,96.01,112.66,96.69z"/>
		<path class="st1" d="M147.87,96.69c-0.83,0.68-1.24,1.58-1.24,2.7s0.51,2.01,1.52,2.68c1.01,0.66,3.35,1.44,7.01,2.34
			c3.66,0.9,6.5,2.25,8.53,4.06c2.02,1.8,3.04,4.43,3.04,7.89s-1.3,6.27-3.89,8.42c-2.59,2.15-6.01,3.23-10.24,3.23
			c-6.11,0-11.61-2.26-16.51-6.79l5.13-6.29c4.16,3.64,8,5.46,11.54,5.46c1.58,0,2.82-0.34,3.73-1.02c0.9-0.68,1.35-1.6,1.35-2.76
			c0-1.16-0.48-2.08-1.43-2.76c-0.96-0.68-2.85-1.37-5.69-2.08c-4.49-1.06-7.78-2.45-9.85-4.16c-2.08-1.72-3.12-4.4-3.12-8.06
			s1.32-6.49,3.95-8.47c2.63-1.99,5.91-2.98,9.85-2.98c2.58,0,5.15,0.45,7.73,1.33c2.58,0.88,4.82,2.13,6.74,3.75l-4.36,6.29
			c-3.35-2.54-6.81-3.81-10.38-3.81C149.83,95.68,148.7,96.01,147.87,96.69z"/>
		<path class="st1" d="M174.07,127.58V88.99h8.61v30.91h16.45v7.67C199.13,127.58,174.07,127.58,174.07,127.58z"/>
	</g>
	<path class="st2" d="M300,56.66V34.75c0-12.15-9.85-22.01-22.01-22.01H22.01C9.85,12.75,0,22.6,0,34.75v21.91H300z"/>
	<path class="st0" d="M100.4,60.71H21.57v-17c0-4.22,3.42-7.64,7.64-7.64h63.55c4.22,0,7.64,3.42,7.64,7.64V60.71z"/>
	<path class="st3" d="M179.24,56.66H100.4V43.71c0-4.22,3.42-7.64,7.64-7.64h63.55c4.22,0,7.64,3.42,7.64,7.64L179.24,56.66
		L179.24,56.66z"/>
	<circle class="st0" cx="246.44" cy="36.59" r="8.43"/>
	<circle class="st0" cx="220.72" cy="36.59" r="8.43"/>
	<g>
		<polygon class="st4" points="232.81,222.33 247.28,287.25 218.02,271.27 218.02,222.33 		"/>
		<polygon class="st5" points="203.22,222.33 188.75,287.25 218.02,271.27 218.02,222.33 		"/>
		<path class="st6" d="M253.66,216.01L253.66,216.01L253.66,216.01c0,11.52-9.34,20.86-20.86,20.86l0,0l-0.04,0.04
			c-8.15,8.15-21.36,8.15-29.5,0l-0.04-0.04h0c-11.52,0-20.86-9.34-20.86-20.86v-0.06l0,0c-8.14-8.14-8.14-21.33,0-29.47l0,0v-0.08
			c0-11.51,9.33-20.84,20.84-20.84h0.08l0,0c8.14-8.14,21.33-8.14,29.47,0l0,0h0.06c11.52,0,20.86,9.34,20.86,20.86l0,0l0,0
			C261.83,194.6,261.83,207.84,253.66,216.01z"/>
		<circle class="st7" cx="218.02" cy="201.24" r="21.09"/>
	</g>
	<g>
		<rect x="29" y="159.46" class="st3" width="118.25" height="13.91"/>
		<rect x="29" y="186.45" class="st3" width="118.25" height="13.91"/>
		<rect x="29" y="213.43" class="st3" width="69.71" height="13.91"/>
	</g>
</g>
</svg>
